<?xml version="1.0" encoding="utf-8"?><svg xmlns="http://www.w3.org/2000/svg" xmlns:xlink="http://www.w3.org/1999/xlink"><symbol viewBox="0 0 451.846 451.847" id="arrow1" xmlns="http://www.w3.org/2000/svg"><path d="M345.441 248.292L151.154 442.573c-12.359 12.365-32.397 12.365-44.75 0-12.354-12.354-12.354-32.391 0-44.744L278.318 225.92 106.409 54.017c-12.354-12.359-12.354-32.394 0-44.748 12.354-12.359 32.391-12.359 44.75 0l194.287 194.284c6.177 6.18 9.262 14.271 9.262 22.366 0 8.099-3.091 16.196-9.267 22.373z"/></symbol><symbol viewBox="0 0 408 408" id="arrow2" xmlns="http://www.w3.org/2000/svg"><path d="M408 178.5H96.9L239.7 35.7 204 0 0 204l204 204 35.7-35.7L96.9 229.5H408v-51z"/></symbol><symbol viewBox="0 0 60.734 60.733" id="facebook" xmlns="http://www.w3.org/2000/svg"><path d="M57.378.001H3.352A3.352 3.352 0 0 0 0 3.353v54.026a3.353 3.353 0 0 0 3.352 3.354h29.086V37.214h-7.914v-9.167h7.914v-6.76c0-7.843 4.789-12.116 11.787-12.116 3.355 0 6.232.251 7.071.36v8.198l-4.854.002c-3.805 0-4.539 1.809-4.539 4.462v5.851h9.078l-1.187 9.166h-7.892v23.52h15.475a3.355 3.355 0 0 0 3.355-3.351V3.351a3.352 3.352 0 0 0-3.354-3.35z"/></symbol><symbol viewBox="0 0 22.012 17.295" id="mail" xmlns="http://www.w3.org/2000/svg"><path d="M19.911 5.331c-1.916 1.327-3.845 2.653-5.748 3.992-.799.553-2.15 1.683-3.145 1.683h-.025c-.995 0-2.346-1.13-3.145-1.683-1.903-1.339-3.831-2.665-5.735-3.992C1.241 4.741 0 3.354 0 2.235 0 1.032.651 0 1.965 0h18.082c1.068 0 1.965.884 1.965 1.965 0 1.376-1.02 2.617-2.101 3.366zm2.101 9.999c0 1.08-.885 1.965-1.965 1.965H1.965A1.971 1.971 0 0 1 0 15.33V5.577c.369.405.786.762 1.241 1.069 2.039 1.388 4.103 2.776 6.104 4.237 1.032.762 2.31 1.695 3.648 1.695h.025c1.339 0 2.616-.934 3.647-1.695 2.003-1.449 4.066-2.85 6.117-4.237a7.28 7.28 0 0 0 1.229-1.069v9.753z"/></symbol><symbol viewBox="0 0 512 512" id="maps" xmlns="http://www.w3.org/2000/svg"><path d="M256 0C153.755 0 70.573 83.182 70.573 185.426c0 126.888 165.939 313.167 173.004 321.035 6.636 7.391 18.222 7.378 24.846 0 7.065-7.868 173.004-194.147 173.004-321.035C441.425 83.182 358.244 0 256 0zm0 278.719c-51.442 0-93.292-41.851-93.292-93.293S204.559 92.134 256 92.134s93.291 41.851 93.291 93.293-41.85 93.292-93.291 93.292z"/></symbol><symbol viewBox="0 0 47.607 47.607" id="pause" xmlns="http://www.w3.org/2000/svg"><path d="M17.991 40.976a6.631 6.631 0 0 1-13.262 0V6.631a6.631 6.631 0 0 1 13.262 0v34.345zm24.886 0a6.631 6.631 0 0 1-13.262 0V6.631a6.631 6.631 0 0 1 13.262 0v34.345z"/></symbol><symbol viewBox="0 0 18.864 18.863" id="phone" xmlns="http://www.w3.org/2000/svg"><path d="M18.448 16.76c-.281.656-1.031 1.086-1.634 1.42-.791.43-1.595.684-2.492.684-1.246 0-2.371-.51-3.51-.924a12.587 12.587 0 0 1-2.345-1.112c-2.278-1.407-5.024-4.153-6.431-6.431A12.617 12.617 0 0 1 .924 8.052C.509 6.913 0 5.788 0 4.542 0 3.644.254 2.84.683 2.05c.335-.603.764-1.353 1.42-1.634C2.545.214 3.483 0 3.965 0c.095 0 .188 0 .282.04.281.094.576.75.71 1.019.429.764.844 1.541 1.286 2.291.214.349.616.777.616 1.192 0 .817-2.425 2.01-2.425 2.733 0 .361.335.831.522 1.152 1.353 2.438 3.041 4.126 5.479 5.479.322.188.791.522 1.152.522.724 0 1.916-2.425 2.733-2.425.415 0 .844.402 1.192.616.75.442 1.527.857 2.291 1.286.268.134.924.429 1.018.71.041.094.041.188.041.281.002.484-.213 1.422-.414 1.864z"/></symbol><symbol viewBox="0 0 373.008 373.008" id="play" xmlns="http://www.w3.org/2000/svg"><path d="M61.792 2.588A19.258 19.258 0 0 1 71.444 0c3.33 0 6.663.864 9.655 2.588l230.116 167.2a19.327 19.327 0 0 1 9.656 16.719 19.293 19.293 0 0 1-9.656 16.713L81.099 370.427a19.336 19.336 0 0 1-19.302 0 19.333 19.333 0 0 1-9.66-16.724V19.305a19.308 19.308 0 0 1 9.655-16.717z"/></symbol><symbol viewBox="0 0 129 129" id="search" xmlns="http://www.w3.org/2000/svg"><path d="M51.6 96.7c11 0 21-3.9 28.8-10.5l35 35c.8.8 1.8 1.2 2.9 1.2s2.1-.4 2.9-1.2c1.6-1.6 1.6-4.2 0-5.8l-35-35c6.5-7.8 10.5-17.9 10.5-28.8 0-24.9-20.2-45.1-45.1-45.1-24.8 0-45.1 20.3-45.1 45.1 0 24.9 20.3 45.1 45.1 45.1zm0-82c20.4 0 36.9 16.6 36.9 36.9C88.5 72 72 88.5 51.6 88.5S14.7 71.9 14.7 51.6c0-20.3 16.6-36.9 36.9-36.9z"/></symbol><symbol viewBox="0 0 0 0" id="sprite" xmlns="http://www.w3.org/2000/svg"/><symbol viewBox="0 0 512 512" id="youtube" xmlns="http://www.w3.org/2000/svg"><path d="M490.24 113.92c-13.888-24.704-28.96-29.248-59.648-30.976C399.936 80.864 322.848 80 256.064 80c-66.912 0-144.032.864-174.656 2.912-30.624 1.76-45.728 6.272-59.744 31.008C7.36 138.592 0 181.088 0 255.904v.256c0 74.496 7.36 117.312 21.664 141.728 14.016 24.704 29.088 29.184 59.712 31.264C112.032 430.944 189.152 432 256.064 432c66.784 0 143.872-1.056 174.56-2.816 30.688-2.08 45.76-6.56 59.648-31.264C504.704 373.504 512 330.688 512 256.192v-.256c0-74.848-7.296-117.344-21.76-142.016zM192 352V160l160 96-160 96z"/></symbol><symbol viewBox="0 0 90 90" id="youtube2" xmlns="http://www.w3.org/2000/svg"><path d="M90 26.958C90 19.525 83.979 13.5 76.55 13.5h-63.1C6.021 13.5 0 19.525 0 26.958v36.084C0 70.475 6.021 76.5 13.45 76.5h63.1C83.979 76.5 90 70.475 90 63.042V26.958zM36 60.225V26.33l25.702 16.947L36 60.225z"/></symbol></svg>