<?xml version="1.0" encoding="utf-8"?><svg xmlns="http://www.w3.org/2000/svg" xmlns:xlink="http://www.w3.org/1999/xlink"><symbol viewBox="0 0 477.175 477.175" id="back" xmlns="http://www.w3.org/2000/svg"><path d="M145.188 238.575l215.5-215.5c5.3-5.3 5.3-13.8 0-19.1s-13.8-5.3-19.1 0l-225.1 225.1c-5.3 5.3-5.3 13.8 0 19.1l225.1 225c2.6 2.6 6.1 4 9.5 4s6.9-1.3 9.5-4c5.3-5.3 5.3-13.8 0-19.1l-215.4-215.5z"/></symbol><symbol viewBox="0 0 442.04 442.04" id="eye" xmlns="http://www.w3.org/2000/svg"><path d="M221.02 341.304c-49.708 0-103.206-19.44-154.71-56.22-38.502-27.494-62.266-54.733-63.259-55.881a12.5 12.5 0 0 1 0-16.367c.993-1.146 24.756-28.387 63.259-55.881 51.505-36.777 105.003-56.219 154.71-56.219 49.708 0 103.207 19.441 154.71 56.219 38.502 27.494 62.266 54.734 63.259 55.881a12.5 12.5 0 0 1 0 16.367c-.993 1.146-24.756 28.387-63.259 55.881-51.503 36.779-105.001 56.22-154.71 56.22zM29.638 221.021c9.61 9.799 27.747 27.03 51.694 44.071 32.83 23.361 83.714 51.212 139.688 51.212s106.859-27.851 139.688-51.212c23.944-17.038 42.082-34.271 51.694-44.071-9.609-9.799-27.747-27.03-51.694-44.071-32.829-23.362-83.714-51.212-139.688-51.212s-106.858 27.85-139.688 51.212c-23.944 17.038-42.082 34.269-51.694 44.071z"/><path d="M221.02 298.521c-42.734 0-77.5-34.767-77.5-77.5s34.766-77.5 77.5-77.5a77.436 77.436 0 0 1 51.048 19.188c5.193 4.549 5.715 12.446 1.166 17.639-4.549 5.193-12.447 5.714-17.639 1.166a52.448 52.448 0 0 0-34.576-12.993c-28.949 0-52.5 23.552-52.5 52.5s23.551 52.5 52.5 52.5c28.95 0 52.5-23.552 52.5-52.5 0-6.903 5.597-12.5 12.5-12.5s12.5 5.597 12.5 12.5c.002 42.733-34.765 77.5-77.499 77.5z"/><path d="M221.02 246.021c-13.785 0-25-11.215-25-25s11.215-25 25-25c13.786 0 25 11.215 25 25s-11.214 25-25 25z"/></symbol><symbol viewBox="0 0 512 512" id="instagram" xmlns="http://www.w3.org/2000/svg"><path d="M373.659 0H138.341C62.06 0 0 62.06 0 138.341v235.318C0 449.94 62.06 512 138.341 512h235.318C449.94 512 512 449.94 512 373.659V138.341C512 62.06 449.94 0 373.659 0zm96.977 373.659c0 53.473-43.503 96.977-96.977 96.977H138.341c-53.473 0-96.977-43.503-96.977-96.977V138.341c0-53.473 43.503-96.977 96.977-96.977h235.318c53.473 0 96.977 43.503 96.977 96.977v235.318z"/><path d="M370.586 238.141c-3.64-24.547-14.839-46.795-32.386-64.342-17.547-17.546-39.795-28.746-64.341-32.385a114.73 114.73 0 0 0-33.682 0c-30.336 4.499-57.103 20.541-75.372 45.172-18.269 24.631-25.854 54.903-21.355 85.237 4.499 30.335 20.541 57.102 45.172 75.372 19.996 14.831 43.706 22.619 68.153 22.619 5.667 0 11.375-.418 17.083-1.265 30.336-4.499 57.103-20.541 75.372-45.172 18.27-24.63 25.855-54.901 21.356-85.236zm-102.795 89.491c-19.405 2.882-38.77-1.973-54.527-13.66-15.757-11.687-26.019-28.811-28.896-48.216-2.878-19.405 1.973-38.77 13.66-54.527 11.688-15.757 28.811-26.019 48.217-28.897a73.42 73.42 0 0 1 21.545.001c32.231 4.779 57.098 29.645 61.878 61.877 5.94 40.058-21.817 77.482-61.877 83.422zm132.258-215.681a20.83 20.83 0 0 0-14.625-6.058 20.826 20.826 0 0 0-14.625 6.058 20.814 20.814 0 0 0-6.058 14.625 20.814 20.814 0 0 0 6.058 14.625 20.83 20.83 0 0 0 14.625 6.058 20.826 20.826 0 0 0 14.625-6.058 20.83 20.83 0 0 0 6.058-14.625 20.826 20.826 0 0 0-6.058-14.625z"/></symbol><symbol viewBox="0 0 404.258 404.258" id="left" xmlns="http://www.w3.org/2000/svg"><path d="M289.927 18l-24-18-151.596 202.129 151.596 202.129 24-18-138.096-184.129z"/></symbol><symbol viewBox="0 0 477.175 477.175" id="next" xmlns="http://www.w3.org/2000/svg"><path d="M360.731 229.075l-225.1-225.1c-5.3-5.3-13.8-5.3-19.1 0s-5.3 13.8 0 19.1l215.5 215.5-215.5 215.5c-5.3 5.3-5.3 13.8 0 19.1 2.6 2.6 6.1 4 9.5 4 3.4 0 6.9-1.3 9.5-4l225.1-225.1c5.3-5.2 5.3-13.8.1-19z"/></symbol><symbol viewBox="0 0 463.009 463.009" id="phone" xmlns="http://www.w3.org/2000/svg"><path d="M462.692 381.085c-1.472-11.126-7.895-20.719-17.62-26.318L330.846 289c-13.99-8.055-31.738-5.71-43.157 5.708l-22.499 22.499c-5.987 5.988-15.459 6.518-22.028 1.231-17.737-14.272-35.201-29.979-51.906-46.685-16.705-16.705-32.412-34.168-46.685-51.906-5.287-6.57-4.758-16.041 1.231-22.029l22.498-22.499c11.418-11.417 13.766-29.163 5.709-43.156L108.242 17.937C102.642 8.211 93.05 1.789 81.924.317c-11.127-1.475-22.06 2.236-29.996 10.172L18.027 44.391c-23.661 23.662-24.041 66.944-1.07 121.875 22.088 52.818 63.308 110.962 116.065 163.721 52.759 52.758 110.903 93.978 163.722 116.066 27.039 11.307 51.253 16.957 71.697 16.956 21.088 0 38.163-6.013 50.178-18.027l33.901-33.902c7.935-7.936 11.643-18.869 10.172-29.995zm-139.33-79.086l114.226 65.767c5.649 3.252 9.379 8.824 10.233 15.286.718 5.423-.691 10.763-3.885 15.066L292.131 311.48l6.165-6.165c6.631-6.631 16.941-7.994 25.066-3.316zM79.956 15.188c6.463.855 12.034 4.585 15.286 10.234l65.767 114.226c4.68 8.127 3.316 18.435-3.315 25.065l-5.663 5.663L64.917 19.073c3.561-2.637 7.82-4.069 12.26-4.069.921 0 1.85.061 2.779.184zm328.055 419.187c-18.798 18.798-57.244 18.01-105.48-2.162-51.06-21.352-107.491-61.424-158.901-112.833-51.41-51.41-91.482-107.842-112.834-158.901-20.173-48.237-20.96-86.683-2.162-105.482l25.167-25.168 87.245 151.532-5.851 5.851c-11.415 11.416-12.409 29.488-2.311 42.04 14.609 18.156 30.68 36.024 47.764 53.108 17.086 17.085 34.954 33.156 53.109 47.765 12.55 10.098 30.622 9.105 42.04-2.312l5.338-5.338 152.016 86.759-25.14 25.141z"/></symbol><symbol viewBox="0 0 404.258 404.258" id="right" xmlns="http://www.w3.org/2000/svg"><path d="M138.331 0l-24 18 138.096 184.129-138.096 184.129 24 18 151.596-202.129z"/></symbol><symbol viewBox="0 0 476.213 476.213" id="right-arrow" xmlns="http://www.w3.org/2000/svg"><path d="M476.213 238.105L400 161.893v61.213H0v30h400v61.214z"/></symbol><symbol viewBox="0 0 0 0" id="sprite" xmlns="http://www.w3.org/2000/svg"/><symbol viewBox="0 0 504 504" id="viber" xmlns="http://www.w3.org/2000/svg"><path d="M377.6 0H126C56.8 0 0 56.8 0 126.4V378c0 69.2 56.8 126 126 126h251.6c69.6 0 126.4-56.8 126.4-126.4V126.4C504 56.8 447.2 0 377.6 0zM238.4 103.6c.8-12.4 12.4-8 18.4-8.8 75.2 2.4 140 70 139.2 142.8 0 7.2 2.4 17.6-8.4 17.6-10.4 0-7.6-10.8-8.8-18-10-77.2-46-113.6-124.4-125.6-6.4-.8-16.4.4-16-8zm112.4 137.2c-12 1.6-9.6-8.8-10.8-15.6-8-47.2-24.8-64.4-73.2-74.8-7.2-1.6-18.4-.4-16.4-11.2 1.6-10.4 11.6-6.8 19.2-6 48.4 5.6 88 46.8 87.6 92-.8 4.8 2.4 14-6.4 15.6zm-30-24.8c0 6.4-.8 12.4-8 13.2-5.2.8-8.4-3.6-9.2-8.8-2-19.2-12.4-30.8-32.4-34-6-.8-11.6-2.8-8.8-10.8 2-5.2 6.8-6 12-6 21.6-.4 46.4 24.8 46.4 46.4zm76 147.6c-8.4 22.8-36.8 46-61.2 45.6-3.6-.8-10.4-2-16.4-4.4C212 359.6 134 285.2 90 178.8c-14.8-35.6.8-66 38-78 6.8-2.4 13.2-2.4 20 0 16 5.6 56.4 60.4 57.2 76.4.8 12.4-8 19.2-16.4 24.8-16.4 10.8-16.4 24.4-9.2 40 15.6 34.4 42.4 58.4 77.2 73.6 12.4 5.6 24.8 5.2 33.2-7.6 15.2-22.8 34-21.6 54.4-7.6 10.4 7.2 20.8 14 30.4 21.6 13.2 10.8 30 19.6 22 41.6z"/></symbol><symbol viewBox="0 0 512 512" id="whatsapp" xmlns="http://www.w3.org/2000/svg"><path d="M256.064 0h-.128C114.784 0 0 114.816 0 256c0 56 18.048 107.904 48.736 150.048l-31.904 95.104 98.4-31.456C155.712 496.512 204 512 256.064 512 397.216 512 512 397.152 512 256S397.216 0 256.064 0zm148.96 361.504c-6.176 17.44-30.688 31.904-50.24 36.128-13.376 2.848-30.848 5.12-89.664-19.264-75.232-31.168-123.68-107.616-127.456-112.576-3.616-4.96-30.4-40.48-30.4-77.216s18.656-54.624 26.176-62.304c6.176-6.304 16.384-9.184 26.176-9.184 3.168 0 6.016.16 8.576.288 7.52.32 11.296.768 16.256 12.64 6.176 14.88 21.216 51.616 23.008 55.392 1.824 3.776 3.648 8.896 1.088 13.856-2.4 5.12-4.512 7.392-8.288 11.744-3.776 4.352-7.36 7.68-11.136 12.352-3.456 4.064-7.36 8.416-3.008 15.936 4.352 7.36 19.392 31.904 41.536 51.616 28.576 25.44 51.744 33.568 60.032 37.024 6.176 2.56 13.536 1.952 18.048-2.848 5.728-6.176 12.8-16.416 20-26.496 5.12-7.232 11.584-8.128 18.368-5.568 6.912 2.4 43.488 20.48 51.008 24.224 7.52 3.776 12.48 5.568 14.304 8.736 1.792 3.168 1.792 18.048-4.384 35.52z"/></symbol></svg>